<?xml version="1.0" encoding="UTF-8"?>
<svg version="1.1" xmlns="http://www.w3.org/2000/svg" width="1080" height="570">
<path d="M0 0 C20.5850329 -0.09372192 41.17003028 -0.16411509 61.75523376 -0.20724869 C71.31475994 -0.22781472 80.87415303 -0.25582044 90.43359375 -0.30175781 C98.77216723 -0.34180904 107.11064425 -0.36747604 115.44931126 -0.37635398 C119.85865291 -0.38153798 124.26771877 -0.39359575 128.67697144 -0.42292023 C132.84009747 -0.45037947 137.00283814 -0.4583845 141.16604614 -0.45243073 C142.68160101 -0.4535175 144.19717084 -0.46128782 145.71264648 -0.4768219 C159.84780827 -0.61441708 172.75515522 2.0625896 185.75 7.75 C186.54728516 8.09506592 187.34457031 8.44013184 188.16601562 8.7956543 C200.22274539 14.1711497 209.03052746 21.52041528 218 31 C218.85078125 31.83917969 219.7015625 32.67835938 220.578125 33.54296875 C227.30757421 40.37010351 231.63709243 47.75668891 235.375 56.5 C235.70862549 57.27037598 236.04225098 58.04075195 236.38598633 58.83447266 C240.82268579 69.67821768 241.34164547 80.32011666 241.3125 91.9375 C241.32861328 93.21818359 241.34472656 94.49886719 241.36132812 95.81835938 C241.37243204 117.61533482 232.84563123 137.24093381 217.6875 152.6875 C210.37539497 159.90384508 197.84434005 172 187 172 C192.16985867 181.50374019 197.44381621 190.88552628 203.24316406 200.02075195 C206.30477047 204.85313501 209.24141427 209.74697488 212.125 214.6875 C215.66725146 220.75416177 219.28577497 226.75989574 222.98828125 232.73046875 C225.65344446 237.06200585 228.26080228 241.42733542 230.85571289 245.80126953 C233.1280649 249.61332604 235.51175504 253.32562132 238 257 C240.38245103 260.57367654 241 261.56828236 241 266 C237.53619764 267.15460079 234.83786188 267.12949711 231.18359375 267.1328125 C230.16262604 267.13533524 230.16262604 267.13533524 229.12103271 267.13790894 C223.02232691 267.14558688 216.92331097 267.10416525 210.82487488 267.0491333 C207.1932303 267.016649 203.56335367 266.99584672 199.93164062 267.02636719 C196.34909404 267.05313016 192.76992066 267.03266881 189.1875 267 C188.12265381 267.01949707 187.05780762 267.03899414 185.96069336 267.05908203 C178.95142415 266.92012544 178.95142415 266.92012544 176.35986328 264.41381836 C175.0388194 262.33432265 174.01585768 260.24276406 173 258 C172.25670678 256.74103408 171.49667288 255.49177376 170.71875 254.25390625 C169.97807792 253.02409256 169.23850719 251.79361494 168.5 250.5625 C168.1083667 249.91071777 167.7167334 249.25893555 167.31323242 248.58740234 C165.24655988 245.13337025 163.23372436 241.66278854 161.3125 238.125 C159.76728945 235.28505743 158.09306645 232.61780486 156.2578125 229.95703125 C152.08079243 223.73894557 148.54747086 217.17567373 144.94335938 210.61523438 C141.75988518 204.8941529 138.3729768 199.47809411 134.52636719 194.17773438 C133.10513094 192.14999488 131.87742862 190.10678922 130.6875 187.9375 C129.3193696 184.92935366 129.3193696 184.92935366 127 184 C124.81459189 183.90811058 122.62630031 183.88249764 120.43896484 183.88647461 C119.75478296 183.88635407 119.07060108 183.88623354 118.36568642 183.88610935 C116.14740389 183.88685671 113.92920502 183.89447691 111.7109375 183.90234375 C110.34285523 183.90381372 108.9747724 183.90483409 107.60668945 183.90539551 C102.52945107 183.91064205 97.45222472 183.92460321 92.375 183.9375 C75.359375 183.9684375 75.359375 183.9684375 58 184 C57.67 211.06 57.34 238.12 57 266 C54.17432328 267.41283836 51.84527639 267.11274557 48.68359375 267.09375 C47.70053505 267.08837219 47.70053505 267.08837219 46.69761658 267.08288574 C37.48388661 267.01099864 28.27282186 266.74671244 19.0625 266.5 C17.20378064 266.45164571 15.3450567 266.40346754 13.48632812 266.35546875 C8.99083007 266.23900361 4.49540034 266.12017565 0 266 C-1.33186062 257.02616721 -1.08274517 248.05260102 -0.984375 239.0078125 C-0.96764848 237.2534084 -0.95098702 235.49900369 -0.93438721 233.74459839 C-0.89805994 230.07821016 -0.85686818 226.4119106 -0.81298828 222.74560547 C-0.75803593 218.0735385 -0.72145508 213.40152209 -0.68935776 208.72924995 C-0.66134391 205.10862162 -0.62028494 201.48822287 -0.57575226 197.86776352 C-0.5567069 196.14642761 -0.54233528 194.42503278 -0.53295135 192.7036171 C-0.42955701 175.47162277 2.61609571 161.08424097 14.79296875 147.9453125 C21.96786561 141.62124412 30.59989579 136.09306495 40 134 C40.67951721 133.82922943 41.35903442 133.65845886 42.05914307 133.48251343 C46.05797793 132.82641503 49.97262672 132.84728397 54.01855469 132.84228516 C54.91856705 132.83720444 55.81857941 132.83212372 56.74586487 132.82688904 C58.69811792 132.81620419 60.65038308 132.80757665 62.6026535 132.80076981 C65.70784242 132.78892531 68.8128957 132.76945317 71.91802979 132.74765015 C80.74657564 132.68625739 89.57510983 132.63225017 98.40380859 132.59863281 C103.81083056 132.57749491 109.21760808 132.54203311 114.62448883 132.49787521 C116.67023051 132.48385531 118.71601547 132.47502502 120.76180267 132.47182083 C147.8639569 132.86314127 147.8639569 132.86314127 171.1484375 120.890625 C180.55066833 109.38578559 181.83378778 98.4457041 181 84 C179.83274236 74.87204526 174.71318743 68.09280444 167.86328125 62.14453125 C157.79243826 54.82192548 145.39288358 53.85657177 133.30786133 53.84228516 C132.36051117 53.83720444 131.41316101 53.83212372 130.43710327 53.82688904 C128.38883689 53.81622751 126.34055916 53.80759098 124.29227638 53.80076981 C121.04128204 53.78891389 117.79041658 53.76944335 114.53947449 53.74765015 C105.29906554 53.68626402 96.05867103 53.6320803 86.81811523 53.59863281 C81.15594398 53.5775917 75.49401055 53.54221464 69.83197594 53.49787521 C67.68441265 53.48379177 65.53680731 53.47501024 63.38920021 53.47182083 C48.03311115 53.4466034 34.9732169 53.139279 22 44 C21.13117187 43.40058594 20.26234375 42.80117187 19.3671875 42.18359375 C13.14499712 37.58660235 9.47365036 32.86459476 6 26 C5.2884375 24.65421875 5.2884375 24.65421875 4.5625 23.28125 C1.36886479 17.11172744 -0.13875618 12.76556866 -0.0625 5.75 C-0.04896484 4.13351563 -0.04896484 4.13351563 -0.03515625 2.484375 C-0.02355469 1.66453125 -0.01195312 0.8446875 0 0 Z " fill="#0B4949" transform="translate(554,149)"/>
<path d="M0 0 C18.81 0 37.62 0 57 0 C57 87.45 57 174.9 57 265 C53.41539667 266.79230167 52.44089919 267.25016168 48.75732422 267.24291992 C47.92901093 267.24599655 47.10069763 267.24907318 46.24728394 267.25224304 C44.9144487 267.24146477 44.9144487 267.24146477 43.5546875 267.23046875 C42.62963409 267.23001053 41.70458069 267.22955231 40.75149536 267.2290802 C38.79297606 267.22606075 36.8344591 267.21818363 34.87597656 267.20581055 C31.90681244 267.1876941 28.93796334 267.1853001 25.96875 267.18554688 C24.05989318 267.18062554 22.15103846 267.17479456 20.2421875 267.16796875 C19.36577606 267.16685593 18.48936462 267.1657431 17.58639526 267.16459656 C11.61418075 267.1196241 5.99635768 266.59963577 0 266 C0 233 0 200 0 166 C-41.58 166 -83.16 166 -126 166 C-125.96038226 198.53601896 -125.96038226 198.53601896 -125.90991211 231.07202148 C-125.90539551 237.35168457 -125.90539551 237.35168457 -125.90455627 240.28749084 C-125.9030164 242.34661576 -125.89949061 244.40573975 -125.89442444 246.46485901 C-125.8871495 249.57611671 -125.8860925 252.68731911 -125.88647461 255.79858398 C-125.8828765 256.72245376 -125.87927839 257.64632353 -125.87557125 258.59818935 C-125.88597366 264.88597366 -125.88597366 264.88597366 -127 266 C-128.77991924 266.09370624 -130.56356739 266.11744271 -132.34594727 266.11352539 C-133.4870546 266.11344986 -134.62816193 266.11337433 -135.80384827 266.11329651 C-137.0454924 266.10813522 -138.28713654 266.10297394 -139.56640625 266.09765625 C-141.46204567 266.09553383 -141.46204567 266.09553383 -143.39598083 266.09336853 C-146.76124889 266.08870582 -150.1264499 266.0797148 -153.49169922 266.06866455 C-156.9234967 266.05844846 -160.35530109 266.05387049 -163.78710938 266.04882812 C-170.52475824 266.0377738 -177.26237525 266.0210171 -184 266 C-184.0698181 258.46286402 -184.12297162 250.925762 -184.15543652 243.38837528 C-184.17102599 239.88762469 -184.19213941 236.38709698 -184.22631836 232.88647461 C-184.26545205 228.85268129 -184.27976462 224.81911844 -184.29296875 220.78515625 C-184.30845261 219.54105484 -184.32393646 218.29695343 -184.33988953 217.01515198 C-184.3412194 210.08651984 -183.73673743 204.38632116 -181 198 C-180.5978125 196.98292969 -180.195625 195.96585938 -179.78125 194.91796875 C-172.72816077 179.88714749 -161.66409893 170.77089495 -146.32421875 164.76171875 C-142.2388157 163.42280515 -138.48040866 162.87342674 -134.1875 162.9375 C-133.39730469 162.94652344 -132.60710937 162.95554687 -131.79296875 162.96484375 C-130.90544922 162.98224609 -130.90544922 162.98224609 -130 163 C-129.85304688 161.85724609 -129.85304688 161.85724609 -129.703125 160.69140625 C-127.66911075 146.64618719 -121.24518471 133.10116116 -110 124 C-95.35627285 113.31764585 -80.12191542 111.65983343 -62.2890625 111.76953125 C-60.41134659 111.77021858 -60.41134659 111.77021858 -58.49569702 111.7709198 C-55.8688664 111.7739176 -53.24203715 111.78172865 -50.61523438 111.79418945 C-46.64186137 111.81242263 -42.668723 111.8146987 -38.6953125 111.81445312 C-36.12239386 111.81937111 -33.54947677 111.82520065 -30.9765625 111.83203125 C-29.23048203 111.83370049 -29.23048203 111.83370049 -27.4491272 111.83540344 C-18.56718695 111.88533652 -9.90596708 112.44337706 -1 113 C-0.67 75.71 -0.34 38.42 0 0 Z " fill="#0B4949" transform="translate(470,149)"/>
<path d="M0 0 C18.81 0 37.62 0 57 0 C57.7979695 3.191878 58.12687673 5.33667048 58.13371277 8.53160095 C58.13797775 9.43545532 58.14224274 10.33930969 58.14663696 11.27055359 C58.14618378 12.2549794 58.14573059 13.23940521 58.14526367 14.25366211 C58.14862228 15.2965036 58.1519809 16.33934509 58.15544128 17.41378784 C58.16495401 20.86831855 58.16689504 24.32280075 58.16796875 27.77734375 C58.1711828 30.18429077 58.17454699 32.59123759 58.17805481 34.9981842 C58.18404808 40.0512843 58.18589467 45.1043673 58.18530273 50.1574707 C58.18520149 56.60637122 58.1988138 63.05516071 58.21607494 69.504035 C58.22724476 74.48086542 58.22922036 79.45766951 58.22869301 84.43451118 C58.22986716 86.81014956 58.23425694 89.18578875 58.24202538 91.56141472 C58.35808256 130.74313763 58.35808256 130.74313763 45 146 C44.53464844 146.56976563 44.06929688 147.13953125 43.58984375 147.7265625 C36.00776525 156.22004174 24.09579498 162.86619327 13 165 C8.71 165 4.42 165 0 165 C0 110.55 0 56.1 0 0 Z " fill="#0B4949" transform="translate(286,149)"/>
<path d="M0 0 C18.81 0 37.62 0 57 0 C57 87.45 57 174.9 57 265 C53.41539667 266.79230167 52.44089919 267.25016168 48.75732422 267.24291992 C47.92901093 267.24599655 47.10069763 267.24907318 46.24728394 267.25224304 C44.9144487 267.24146477 44.9144487 267.24146477 43.5546875 267.23046875 C42.62963409 267.23001053 41.70458069 267.22955231 40.75149536 267.2290802 C38.79297606 267.22606075 36.8344591 267.21818363 34.87597656 267.20581055 C31.90681244 267.1876941 28.93796334 267.1853001 25.96875 267.18554688 C24.05989318 267.18062554 22.15103846 267.17479456 20.2421875 267.16796875 C19.36577606 267.16685593 18.48936462 267.1657431 17.58639526 267.16459656 C11.61418075 267.1196241 5.99635768 266.59963577 0 266 C0 233 0 200 0 166 C-12.70757812 166.01740234 -12.70757812 166.01740234 -25.671875 166.03515625 C-31.71257817 166.04091372 -37.75327929 166.04604029 -43.79398346 166.05025387 C-51.6237295 166.0557996 -59.45346491 166.06284511 -67.28320312 166.07543945 C-74.14314123 166.08646859 -81.00306781 166.09228057 -87.86301422 166.09487724 C-90.48333162 166.09672832 -93.10364837 166.10034288 -95.72396088 166.10573006 C-99.38727695 166.11296365 -103.05054515 166.11398995 -106.71386719 166.11352539 C-107.80287323 166.11712067 -108.89187927 166.12071594 -110.0138855 166.12442017 C-111.01225433 166.1230455 -112.01062317 166.12167084 -113.03924561 166.12025452 C-114.33897371 166.12163721 -114.33897371 166.12163721 -115.66495895 166.12304783 C-117.90950009 166.004769 -119.84745342 165.62729262 -122 165 C-122 164.34 -122 163.68 -122 163 C-123.32 162.67 -124.64 162.34 -126 162 C-126 162.66 -126 163.32 -126 164 C-130.29 164 -134.58 164 -139 164 C-139 163.67 -139 163.34 -139 163 C-136.03 163 -133.06 163 -130 163 C-129.505 159.04 -129.505 159.04 -129 155 C-128.01 155 -127.02 155 -126 155 C-125.505 154.01 -125.505 154.01 -125 153 C-124.67 155.64 -124.34 158.28 -124 161 C-123.3697781 160.99815641 -122.7395562 160.99631283 -122.09023666 160.99441338 C-106.75870735 160.95025327 -91.42720014 160.91715266 -76.09562302 160.89637566 C-68.68140123 160.88606111 -61.26722189 160.87199738 -53.85302734 160.84912109 C-47.39115376 160.82919266 -40.92931092 160.81628486 -34.46740746 160.81182301 C-31.04557252 160.8092147 -27.62382551 160.80308036 -24.20201874 160.78853989 C-20.38299795 160.77407553 -16.56416085 160.77201996 -12.74511719 160.77294922 C-11.04147758 160.76216339 -11.04147758 160.76216339 -9.30342102 160.75115967 C-7.74276161 160.75528366 -7.74276161 160.75528366 -6.15057373 160.75949097 C-5.24721661 160.75764738 -4.34385948 160.75580379 -3.4131279 160.75390434 C-1 161 -1 161 3 163 C3 196 3 229 3 263 C19.17 262.67 35.34 262.34 52 262 C51.98839844 255.51472656 51.97679687 249.02945313 51.96484375 242.34765625 C51.95973707 238.25065005 51.9549233 234.15364774 51.95117188 230.05664062 C51.94518314 223.54694814 51.93808203 217.03726965 51.92456055 210.52758789 C51.91373265 205.28214298 51.90772338 200.03671308 51.90512276 194.79125786 C51.90326833 192.78529054 51.89964738 190.77932408 51.89426994 188.77336311 C51.88706081 185.97397176 51.886009 183.17464321 51.88647461 180.37524414 C51.88287933 179.53727295 51.87928406 178.69930176 51.87557983 177.8359375 C51.88594784 172.11405216 51.88594784 172.11405216 53 171 C53.09870518 169.13385317 53.12632174 167.26392739 53.12698364 165.39517212 C53.12980347 164.1780806 53.13262329 162.96098907 53.13552856 161.70701599 C53.13358395 160.34585557 53.13153576 158.98469529 53.12939453 157.62353516 C53.13074856 156.19970149 53.1325285 154.77586817 53.13470459 153.35203552 C53.13927955 149.47390914 53.13748889 145.59580923 53.1343255 141.71768236 C53.13180124 137.66582192 53.13413972 133.6139638 53.13571167 129.56210327 C53.13753359 122.75428865 53.13512692 115.94648486 53.13037109 109.13867188 C53.12493279 101.26286564 53.1266879 93.38708531 53.1321975 85.5112797 C53.13673321 78.75797543 53.1373768 72.00467896 53.13475883 65.25137365 C53.13319802 61.21425602 53.13299686 57.17715057 53.13629532 53.14003372 C53.13918051 49.34308979 53.13718636 45.54617928 53.13140106 41.74923897 C53.13007677 40.35402418 53.130462 38.95880659 53.13266373 37.56359291 C53.13538822 35.66199467 53.13136904 33.7603903 53.12698364 31.85879517 C53.12660662 30.7935795 53.12622959 29.72836384 53.12584114 28.63086891 C53.11363633 25.89000811 53.11363633 25.89000811 52 23 C52 16.4 52 9.8 52 3 C35.83 3 19.66 3 3 3 C3 39.3 3 75.6 3 113 C2.01 113 1.02 113 0 113 C0 75.71 0 38.42 0 0 Z " fill="#0A3E3D" transform="translate(470,149)"/>
<path d="M0 0 C0.33 0 0.66 0 1 0 C1.33 2.64 1.66 5.28 2 8 C2.6302219 7.99815641 3.2604438 7.99631283 3.90976334 7.99441338 C19.24129265 7.95025327 34.57279986 7.91715266 49.90437698 7.89637566 C57.31859877 7.88606111 64.73277811 7.87199738 72.14697266 7.84912109 C78.60884624 7.82919266 85.07068908 7.81628486 91.53259254 7.81182301 C94.95442748 7.8092147 98.37617449 7.80308036 101.79798126 7.78853989 C105.61700205 7.77407553 109.43583915 7.77201996 113.25488281 7.77294922 C114.95852242 7.76216339 114.95852242 7.76216339 116.69657898 7.75115967 C118.25723839 7.75528366 118.25723839 7.75528366 119.84942627 7.75949097 C120.75278339 7.75764738 121.65614052 7.75580379 122.5868721 7.75390434 C125 8 125 8 129 10 C129 43 129 76 129 110 C146.16 110 163.32 110 181 110 C181 110.66 181 111.32 181 112 C153.775 112.495 153.775 112.495 126 113 C126 80 126 47 126 13 C113.29242188 13.01740234 113.29242188 13.01740234 100.328125 13.03515625 C94.28742183 13.04091372 88.24672071 13.04604029 82.20601654 13.05025387 C74.3762705 13.0557996 66.54653509 13.06284511 58.71679688 13.07543945 C51.85685877 13.08646859 44.99693219 13.09228057 38.13698578 13.09487724 C35.51666838 13.09672832 32.89635163 13.10034288 30.27603912 13.10573006 C26.61272305 13.11296365 22.94945485 13.11398995 19.28613281 13.11352539 C17.65262375 13.1189183 17.65262375 13.1189183 15.9861145 13.12442017 C14.98774567 13.1230455 13.98937683 13.12167084 12.96075439 13.12025452 C11.66102629 13.12163721 11.66102629 13.12163721 10.33504105 13.12304783 C8.09049991 13.004769 6.15254658 12.62729262 4 12 C4 11.34 4 10.68 4 10 C2.68 9.67 1.36 9.34 0 9 C0 9.66 0 10.32 0 11 C-4.29 11 -8.58 11 -13 11 C-13 10.67 -13 10.34 -13 10 C-10.03 10 -7.06 10 -4 10 C-3.67 7.36 -3.34 4.72 -3 2 C-2.01 2 -1.02 2 0 2 C0 1.34 0 0.68 0 0 Z " fill="#073332" transform="translate(344,302)"/>
<path d="M0 0 C0.99 0 1.98 0 3 0 C3 0.66 3 1.32 3 2 C19.83 2 36.66 2 54 2 C54 2.33 54 2.66 54 3 C37.83 3 21.66 3 5 3 C5 53.82 5 104.64 5 157 C4.67 157 4.34 157 4 157 C3.67 158.65 3.34 160.3 3 162 C18.21407423 159.59098992 18.21407423 159.59098992 32 153 C34.1875 153.375 34.1875 153.375 36 154 C23.46147679 162.27385309 15.98828134 165 0 165 C0 110.55 0 56.1 0 0 Z " fill="#0F403D" transform="translate(286,149)"/>
<path d="M0 0 C0.33 0 0.66 0 1 0 C1 27.06 1 54.12 1 82 C17.5 82 34 82 51 82 C51.33 55.27 51.66 28.54 52 1 C52.66 1 53.32 1 54 1 C55.54758217 4.09516435 55.1295989 7.35856074 55.11352539 10.75439453 C55.11367142 11.55447937 55.11381744 12.35456421 55.1139679 13.17889404 C55.1132698 15.83022753 55.10548221 18.48149125 55.09765625 21.1328125 C55.0957917 22.96841392 55.09436797 24.80401583 55.09336853 26.63961792 C55.08954623 31.47623055 55.07971839 36.31281327 55.06866455 41.14941406 C55.05844426 46.08267817 55.05386958 51.01594711 55.04882812 55.94921875 C55.03809588 65.63282566 55.02102289 75.31641035 55 85 C52.17432328 86.41283836 49.84527639 86.11274557 46.68359375 86.09375 C46.02822128 86.09016479 45.37284882 86.08657959 44.69761658 86.08288574 C35.48388661 86.01099864 26.27282186 85.74671244 17.0625 85.5 C15.20378064 85.45164571 13.3450567 85.40346754 11.48632812 85.35546875 C6.99083007 85.23900361 2.49540034 85.12017565 -2 85 C-1.83923477 84.1736203 -1.67846954 83.3472406 -1.51283264 82.49581909 C-0.95154225 78.66967874 -0.82563487 74.9241867 -0.79467773 71.06689453 C-0.78477814 70.2954863 -0.77487854 69.52407806 -0.76467896 68.72929382 C-0.73326686 66.19716386 -0.70838739 63.66501518 -0.68359375 61.1328125 C-0.66300667 59.37018363 -0.64200975 57.60755951 -0.62062073 55.84494019 C-0.56558117 51.21887059 -0.51609243 46.59275779 -0.46777344 41.96661377 C-0.41742567 37.2407245 -0.36180908 32.51489752 -0.30664062 27.7890625 C-0.19928082 18.52609496 -0.09778713 9.2630732 0 0 Z " fill="#003532" transform="translate(556,330)"/>
<path d="M0 0 C17.82 0 35.64 0 54 0 C54.80102809 3.20411236 55.12544969 5.35074737 55.12698364 8.55851746 C55.12980347 9.46815247 55.13262329 10.37778748 55.13552856 11.31498718 C55.13350433 12.30569717 55.1314801 13.29640717 55.12939453 14.31713867 C55.13114685 15.36640533 55.13289917 16.415672 55.13470459 17.49673462 C55.13911064 20.97049609 55.1361884 24.44420674 55.1328125 27.91796875 C55.13348615 30.33449819 55.13445669 32.75102756 55.13571167 35.16755676 C55.13718716 40.23744348 55.13503976 45.30731259 55.13037109 50.37719727 C55.12468914 56.86233271 55.12794402 63.34742663 55.13394356 69.83256054 C55.13756617 74.82638356 55.1364025 79.82019683 55.13381577 84.81402016 C55.13315041 87.20412514 55.13396121 89.59423101 55.13629532 91.98433495 C55.13884804 95.3348765 55.13494373 98.68535201 55.12939453 102.03588867 C55.13141876 103.01647751 55.13344299 103.99706635 55.13552856 105.00737 C55.10681925 114.41212967 54.66076053 121.73090873 50 130 C49.67 130 49.34 130 49 130 C49.14095064 128.3745692 49.28792087 126.74965949 49.4375 125.125 C49.51871094 124.22007812 49.59992188 123.31515625 49.68359375 122.3828125 C50 120 50 120 51 118 C51.0923837 116.46680641 51.12192769 114.92961973 51.12025452 113.39364624 C51.12162918 112.4232692 51.12300385 111.45289215 51.12442017 110.45310974 C51.12082489 109.38496536 51.11722961 108.31682098 51.11352539 107.21630859 C51.11367142 106.09435593 51.11381744 104.97240326 51.1139679 103.81645203 C51.11326909 100.09376111 51.10547815 96.37111972 51.09765625 92.6484375 C51.09579196 90.07296781 51.09436811 87.49749776 51.09336853 84.92202759 C51.0899355 78.82699678 51.08204739 72.73198653 51.07201904 66.63696349 C51.05975544 59.01839576 51.05427355 51.39982513 51.04882812 43.78125 C51.03908184 30.18748606 51.01905074 16.59376116 51 3 C34.17 2.67 17.34 2.34 0 2 C0 1.34 0 0.68 0 0 Z " fill="#3D5E5E" transform="translate(289,149)"/>
<path d="M0 0 C0.99 0.33 1.98 0.66 3 1 C3 21.13 3 41.26 3 62 C19.5 62 36 62 53 62 C53 61.34 53 60.68 53 60 C53.66 60 54.32 60 55 60 C55 61.65 55 63.3 55 65 C36.19 65 17.38 65 -2 65 C-2.04199388 57.41777162 -2.08205851 49.83596691 -2.10350037 42.25372314 C-2.114041 38.72248332 -2.12811626 35.19134024 -2.15087891 31.66015625 C-2.1768596 27.60415739 -2.18649038 23.54826025 -2.1953125 19.4921875 C-2.20563507 18.23260223 -2.21595764 16.97301697 -2.22659302 15.67526245 C-2.22674408 14.49449127 -2.22689514 13.31372009 -2.22705078 12.09716797 C-2.231492 11.06236298 -2.23593323 10.02755798 -2.24050903 8.96139526 C-1.97688382 5.71536977 -1.1438319 3.03873392 0 0 Z " fill="#083C39" transform="translate(288,350)"/>
<path d="M0 0 C39.6 0 79.2 0 120 0 C120 0.33 120 0.66 120 1 C117.69 1 115.38 1 113 1 C113 1.66 113 2.32 113 3 C114.98 3 116.96 3 119 3 C119 3.33 119 3.66 119 4 C104.33571655 4.0233589 89.67143557 4.04099389 75.0071373 4.05181217 C68.19827401 4.05696876 61.38942228 4.06399936 54.58056641 4.07543945 C48.01240311 4.08646988 41.44424869 4.09228083 34.87607574 4.09487724 C32.36740174 4.0967281 29.85872841 4.10034224 27.35005951 4.10573006 C23.8424079 4.11296527 20.33480628 4.11398988 16.82714844 4.11352539 C15.78489609 4.11712067 14.74264374 4.12071594 13.66880798 4.12442017 C12.71250992 4.1230455 11.75621185 4.12167084 10.77093506 4.12025452 C9.94132137 4.12117631 9.11170769 4.1220981 8.25695419 4.12304783 C6.0452506 4.00246704 4.12287746 3.61433377 2 3 C2 2.34 2 1.68 2 1 C1.34 0.67 0.68 0.34 0 0 Z " fill="#003432" transform="translate(346,311)"/>
<path d="M0 0 C18.81 0 37.62 0 57 0 C56.34 1.98 55.68 3.96 55 6 C54.505 4.02 54.505 4.02 54 2 C37.5 2.33 21 2.66 4 3 C3.67 39.3 3.34 75.6 3 113 C2.01 113 1.02 113 0 113 C0 75.71 0 38.42 0 0 Z " fill="#022827" transform="translate(470,149)"/>
<path d="M0 0 C0 0.66 0 1.32 0 2 C-7.04952952 6.17146485 -12.55563094 7.72978448 -20.70703125 7.62768555 C-22.23594498 7.63859222 -22.23594498 7.63859222 -23.79574585 7.64971924 C-27.1350262 7.66818575 -30.4732207 7.65229219 -33.8125 7.63671875 C-36.15080717 7.64476756 -38.48910701 7.65529066 -40.82739258 7.66816711 C-46.96546862 7.69664328 -53.1032065 7.69730434 -59.24133301 7.69030762 C-69.06406095 7.68297032 -78.88668033 7.71446159 -88.70932007 7.75275612 C-92.12701275 7.76156289 -95.54446629 7.75632285 -98.9621582 7.74919128 C-101.07242903 7.75257806 -103.18269932 7.75632801 -105.29296875 7.76049805 C-106.23248383 7.75480301 -107.1719989 7.74910797 -108.13998413 7.74324036 C-114.11789462 7.76965333 -120.32322452 7.9570763 -126 10 C-126.99 11.485 -126.99 11.485 -128 13 C-131.125 13.1875 -131.125 13.1875 -134 13 C-134 11.68 -134 10.36 -134 9 C-132.27255984 8.34956281 -130.5429631 7.70485156 -128.8125 7.0625 C-127.36810547 6.52302734 -127.36810547 6.52302734 -125.89453125 5.97265625 C-120.18663479 4.05461817 -114.94730096 3.84965608 -108.98144531 3.84228516 C-108.08143295 3.83720444 -107.18142059 3.83212372 -106.25413513 3.82688904 C-104.30188208 3.81620419 -102.34961692 3.80757665 -100.3973465 3.80076981 C-97.29215758 3.78892531 -94.1871043 3.76945317 -91.08197021 3.74765015 C-82.25342436 3.68625739 -73.42489017 3.63225017 -64.59619141 3.59863281 C-59.18916944 3.57749491 -53.78239192 3.54203311 -48.37551117 3.49787521 C-46.32976949 3.48385531 -44.28398453 3.47502502 -42.23819733 3.47182083 C-31.06370408 3.45248381 -20.47452939 2.94609017 -9.52191162 0.63949585 C-6.25183035 0.04572644 -3.31264753 -0.12020514 0 0 Z " fill="#0A3A38" transform="translate(717,278)"/>
<path d="M0 0 C52.47 0 104.94 0 159 0 C159 0.66 159 1.32 159 2 C160.32 2 161.64 2 163 2 C163 2.66 163 3.32 163 4 C162.00526169 3.92894547 161.01052338 3.85789093 159.98564148 3.78468323 C144.60079449 2.78541591 129.2121593 2.8690457 113.80344224 2.89860606 C109.93046135 2.90494431 106.0574793 2.90545154 102.18449402 2.90663147 C94.88234698 2.9097144 87.58021527 2.91788593 80.27807492 2.92798096 C71.95131361 2.9392376 63.62455149 2.94467638 55.29778445 2.94967639 C38.19851391 2.96007181 21.09925918 2.97781741 4 3 C4 6.63 4 10.26 4 14 C3.34 14 2.68 14 2 14 C1.67 14.66 1.34 15.32 1 16 C0 12 0 12 0 0 Z " fill="#042D2D" transform="translate(554,149)"/>
<path d="M0 0 C1.00749298 0.00142502 2.01498596 0.00285004 3.05300903 0.00431824 C4.19535004 0.00124161 5.33769104 -0.00183502 6.51464844 -0.00500488 C7.75723419 0.00218063 8.99981995 0.00936615 10.28005981 0.01676941 C11.55833649 0.01722763 12.83661316 0.01768585 14.15362549 0.01815796 C16.86900219 0.01972486 19.58424747 0.02801998 22.29959106 0.04142761 C25.7465928 0.05824815 29.19344781 0.06224673 32.64048576 0.06148243 C35.95786266 0.0618237 39.2751936 0.07069576 42.59255981 0.07926941 C43.81490326 0.08038223 45.0372467 0.08149506 46.29663086 0.0826416 C53.77753526 0.12329974 61.15604811 0.50423326 68.60037231 1.24723816 C67.28037231 1.57723816 65.96037231 1.90723816 64.60037231 2.24723816 C64.60037231 2.90723816 64.60037231 3.56723816 64.60037231 4.24723816 C66.25037231 4.24723816 67.90037231 4.24723816 69.60037231 4.24723816 C69.60037231 4.57723816 69.60037231 4.90723816 69.60037231 5.24723816 C43.88423141 6.03484967 18.30835562 6.43463035 -7.39962769 5.24723816 C-7.39962769 4.91723816 -7.39962769 4.58723816 -7.39962769 4.24723816 C-2.77962769 4.24723816 1.84037231 4.24723816 6.60037231 4.24723816 C6.60037231 3.58723816 6.60037231 2.92723816 6.60037231 2.24723816 C2.97037231 2.24723816 -0.65962769 2.24723816 -4.39962769 2.24723816 C-2.39962769 0.24723816 -2.39962769 0.24723816 0 0 Z " fill="#23504D" transform="translate(396.3996276855469,260.7527618408203)"/>
<path d="M0 0 C1.32 0.33 2.64 0.66 4 1 C4 1.66 4 2.32 4 3 C5.32 3.33 6.64 3.66 8 4 C5.36 4 2.72 4 0 4 C0 36.67 0 69.34 0 103 C-0.33 101.68 -0.66 100.36 -1 99 C-1.66 99 -2.32 99 -3 99 C-3 67.65 -3 36.3 -3 4 C-7.29 4 -11.58 4 -16 4 C-12.36804504 1.57869669 -10.61650652 1.78977215 -6.3125 1.875 C-5.13300781 1.89304687 -3.95351563 1.91109375 -2.73828125 1.9296875 C-1.38283203 1.96449219 -1.38283203 1.96449219 0 2 C0 1.34 0 0.68 0 0 Z " fill="#597777" transform="translate(344,311)"/>
<path d="M0 0 C20.71182322 -0.10235783 41.41827674 0.19358763 62.12780762 0.46356201 C66.86188418 0.52495671 71.59598204 0.58466401 76.33007812 0.64453125 C85.55340648 0.7614089 94.77671051 0.88009748 104 1 C104.495 1.99 104.495 1.99 105 3 C102.23373675 3.78092314 99.78353557 4.1240523 96.91241455 4.12025452 C95.70514961 4.12231651 95.70514961 4.12231651 94.47349548 4.12442017 C93.59955643 4.12082489 92.72561737 4.11722961 91.82519531 4.11352539 C90.898022 4.11367142 89.97084869 4.11381744 89.01557922 4.1139679 C85.95307063 4.11327162 82.89062296 4.10549249 79.828125 4.09765625 C77.7039188 4.09579106 75.57971216 4.09436763 73.45550537 4.09336853 C67.86597505 4.08955131 62.27647073 4.07972778 56.68695068 4.06866455 C50.98271028 4.05843337 45.27846568 4.05386725 39.57421875 4.04882812 C28.38280108 4.03810482 17.1914027 4.02103791 6 4 C6.66 3.34 7.32 2.68 8 2 C5.36 2 2.72 2 0 2 C0 1.34 0 0.68 0 0 Z " fill="#023B38" transform="translate(596,198)"/>
<path d="M0 0 C0.99 0 1.98 0 3 0 C3 53.46 3 106.92 3 162 C18.37898052 159.47475518 18.37898052 159.47475518 32 153 C34.1875 153.375 34.1875 153.375 36 154 C24.16710911 161.80822424 17.04032612 165.36730237 2 164 C2 110.21 2 56.42 2 1 C1.34 0.67 0.68 0.34 0 0 Z " fill="#00221F" transform="translate(286,149)"/>
<path d="M0 0 C1.32 0 2.64 0 4 0 C4.495 2.97 4.495 2.97 5 6 C1.52663587 7.15778804 -1.18699157 7.1295047 -4.8515625 7.1328125 C-5.53516846 7.13413177 -6.21877441 7.13545105 -6.9230957 7.1368103 C-9.15710945 7.13873097 -11.39099892 7.13237942 -13.625 7.125 C-14.38222351 7.12411377 -15.13944702 7.12322754 -15.9196167 7.12231445 C-29.63101572 7.10346268 -43.3059797 6.71612679 -57 6 C-57.33 4.35 -57.66 2.7 -58 1 C-57.01 1.495 -57.01 1.495 -56 2 C-54.21268076 2.0908238 -52.42194511 2.11753799 -50.63232422 2.11352539 C-48.95080765 2.11341209 -48.95080765 2.11341209 -47.23532104 2.11329651 C-46.02071198 2.10813522 -44.80610291 2.10297394 -43.5546875 2.09765625 C-41.69446457 2.09553383 -41.69446457 2.09553383 -39.79666138 2.09336853 C-36.49881867 2.08871096 -33.20102454 2.07972439 -29.90319824 2.06866455 C-26.53833613 2.05843731 -23.17346692 2.05386809 -19.80859375 2.04882812 C-13.20571007 2.03778269 -6.60285901 2.02103247 0 2 C0 1.34 0 0.68 0 0 Z " fill="#2D4342" transform="translate(790,409)"/>
<path d="M0 0 C0.33 0 0.66 0 1 0 C1 32.34 1 64.68 1 98 C18.49 98 35.98 98 54 98 C54 98.66 54 99.32 54 100 C46.47043741 100.16780996 38.94073809 100.32777637 31.41088867 100.48217773 C28.84704781 100.53568935 26.28324437 100.59102543 23.71948242 100.64819336 C20.04353917 100.72984943 16.36751313 100.80503532 12.69140625 100.87890625 C10.96018272 100.91945885 10.96018272 100.91945885 9.19398499 100.96083069 C8.13296066 100.98092697 7.07193634 101.00102325 5.97875977 101.02172852 C5.03944107 101.04171402 4.10012238 101.06169952 3.13233948 101.08229065 C1 101 1 101 0 100 C-0.09533653 96.8949275 -0.12551126 93.81213542 -0.11352539 90.70678711 C-0.11367142 89.73128403 -0.11381744 88.75578094 -0.1139679 87.75071716 C-0.11326833 84.50957047 -0.10547391 81.26848046 -0.09765625 78.02734375 C-0.09579222 75.78674857 -0.09436825 73.54615298 -0.09336853 71.30555725 C-0.08954213 65.3954049 -0.0797108 59.48527695 -0.06866455 53.57513428 C-0.05845306 47.54944183 -0.05387147 41.52374547 -0.04882812 35.49804688 C-0.03808864 23.66535384 -0.02101076 11.83267894 0 0 Z " fill="#031A18" transform="translate(471,314)"/>
<path d="M0 0 C0.33 0 0.66 0 1 0 C1 27.06 1 54.12 1 82 C18.49 82 35.98 82 54 82 C54 82.66 54 83.32 54 84 C35.52 84.33 17.04 84.66 -2 85 C-1.67 83.02 -1.34 81.04 -1 79 C-0.88722539 76.34798576 -0.81596421 73.71921125 -0.79467773 71.06689453 C-0.78477814 70.2954863 -0.77487854 69.52407806 -0.76467896 68.72929382 C-0.73326686 66.19716386 -0.70838739 63.66501518 -0.68359375 61.1328125 C-0.66300667 59.37018363 -0.64200975 57.60755951 -0.62062073 55.84494019 C-0.56558117 51.21887059 -0.51609243 46.59275779 -0.46777344 41.96661377 C-0.41742567 37.2407245 -0.36180908 32.51489752 -0.30664062 27.7890625 C-0.19928082 18.52609496 -0.09778713 9.2630732 0 0 Z " fill="#041D1B" transform="translate(556,330)"/>
<path d="M0 0 C0.99 0 1.98 0 3 0 C3 7.92 3 15.84 3 24 C2.34 24 1.68 24 1 24 C1.061875 24.86625 1.12375 25.7325 1.1875 26.625 C0.96672886 30.59888058 0.17110675 32.67096965 -2 36 C-4.625 37.9375 -4.625 37.9375 -8 40 C-11.03637172 42.28720157 -14.01876788 44.64151414 -17 47 C-17.66 46.67 -18.32 46.34 -19 46 C-18.319375 45.360625 -17.63875 44.72125 -16.9375 44.0625 C-9.14406031 36.22477941 -2.19715668 27.11961439 -1.71875 15.7421875 C-1.68136719 14.95199219 -1.64398437 14.16179687 -1.60546875 13.34765625 C-1.53482362 11.6914204 -1.46451423 10.03517021 -1.39453125 8.37890625 C-1.35714844 7.59128906 -1.31976562 6.80367187 -1.28125 5.9921875 C-1.23581055 4.91493408 -1.23581055 4.91493408 -1.18945312 3.81591797 C-1 2 -1 2 0 0 Z " fill="#0C3634" transform="translate(737,231)"/>
<path d="M0 0 C0.99 0 1.98 0 3 0 C2.83890747 0.99067474 2.67781494 1.98134949 2.51184082 3.00204468 C1.94534506 6.98779378 1.83439011 10.94621408 1.81054688 14.96728516 C1.79810692 16.11256935 1.79810692 16.11256935 1.78541565 17.2809906 C1.76811867 18.9265609 1.75292442 20.57215441 1.73963928 22.21776199 C1.71846502 24.82414122 1.69145752 27.43040378 1.66296387 30.03671265 C1.59342536 36.50551461 1.53375866 42.9744005 1.47393799 49.44329834 C1.42292593 54.92085218 1.36808946 60.39834157 1.30812073 65.8758049 C1.28162838 68.43993951 1.26076955 71.00408055 1.2401123 73.56826782 C1.22350524 75.14268282 1.20663305 76.71709505 1.18945312 78.29150391 C1.1831765 79.35610588 1.1831765 79.35610588 1.17677307 80.44221497 C1.13088721 84.0799921 0.85612382 87.46048784 0 91 C-2.52233348 87.21649979 -2.23514585 84.27831552 -2.15112305 79.90429688 C-2.14326782 79.07962418 -2.1354126 78.25495148 -2.12731934 77.4052887 C-2.09871612 74.67622528 -2.05546299 71.94760949 -2.01171875 69.21875 C-1.98808623 67.32451278 -1.96521326 65.43026595 -1.94306946 63.53601074 C-1.8945171 59.56474697 -1.83915013 55.59365669 -1.77856445 51.62255859 C-1.70104398 46.52807972 -1.63666606 41.43354398 -1.57690716 36.33882904 C-1.53021156 32.42692539 -1.47844289 28.51510267 -1.42493629 24.60328674 C-1.39949396 22.72458898 -1.37519742 20.84587535 -1.3520565 18.96714783 C-1.31860132 16.34323443 -1.2787785 13.71949647 -1.23706055 11.09570312 C-1.22816299 10.31638931 -1.21926544 9.5370755 -1.21009827 8.73414612 C-1.15399479 5.5704046 -1.00760931 3.02282793 0 0 Z " fill="#0D3635" transform="translate(555,323)"/>
<path d="M0 0 C0.33 0 0.66 0 1 0 C1.33 2.64 1.66 5.28 2 8 C2.63114369 7.99815641 3.26228739 7.99631283 3.91255665 7.99441338 C19.26042559 7.95026978 34.6082725 7.91716072 49.95618916 7.89637566 C57.37828665 7.88605733 64.80034179 7.87198641 72.22241211 7.84912109 C78.69050203 7.8292042 85.15856129 7.81628761 91.62668103 7.81182301 C95.05239639 7.80921274 98.47802403 7.80306599 101.90371132 7.78853989 C105.72529384 7.77246607 109.54679006 7.77201922 113.3684082 7.77294922 C115.07744072 7.76216339 115.07744072 7.76216339 116.82099915 7.75115967 C118.37959656 7.75528366 118.37959656 7.75528366 119.96968079 7.75949097 C120.8739597 7.75764738 121.77823862 7.75580379 122.70991993 7.75390434 C125 8 125 8 128 10 C85.76 9.67 43.52 9.34 0 9 C0 9.66 0 10.32 0 11 C-4.29 11 -8.58 11 -13 11 C-13 10.67 -13 10.34 -13 10 C-10.03 10 -7.06 10 -4 10 C-3.67 7.36 -3.34 4.72 -3 2 C-2.01 2 -1.02 2 0 2 C0 1.34 0 0.68 0 0 Z " fill="#093E3B" transform="translate(344,302)"/>
<path d="M0 0 C0.66 0 1.32 0 2 0 C2 1.65 2 3.3 2 5 C-16.81 5 -35.62 5 -55 5 C-54.67 3.68 -54.34 2.36 -54 1 C-36.18 1.33 -18.36 1.66 0 2 C0 1.34 0 0.68 0 0 Z " fill="#081F1A" transform="translate(341,410)"/>
<path d="M0 0 C0.78375 0.05220703 1.5675 0.10441406 2.375 0.15820312 C4.2920912 0.28678851 6.20861503 0.42378617 8.125 0.5625 C8.125 1.2225 8.125 1.8825 8.125 2.5625 C14.395 2.8925 20.665 3.2225 27.125 3.5625 C27.125 3.8925 27.125 4.2225 27.125 4.5625 C25.95106689 4.53631592 24.77713379 4.51013184 23.56762695 4.4831543 C19.15262413 4.39167634 14.73770241 4.33490123 10.32202148 4.2878418 C8.42213793 4.26291738 6.52234804 4.22896476 4.62280273 4.18530273 C-6.00132293 3.94747006 -14.83275786 3.92434708 -24.58520508 8.57739258 C-25.3408374 8.90247803 -26.09646973 9.22756348 -26.875 9.5625 C-27.535 9.2325 -28.195 8.9025 -28.875 8.5625 C-28.545 7.5725 -28.215 6.5825 -27.875 5.5625 C-25.14453125 4.2109375 -25.14453125 4.2109375 -21.6875 2.9375 C-20.55957031 2.51210938 -19.43164062 2.08671875 -18.26953125 1.6484375 C-11.95047004 -0.37308035 -6.52918054 -0.48138873 0 0 Z " fill="#0C4240" transform="translate(394.875,262.4375)"/>
<path d="M0 0 C12.48883114 2.27069657 21.6529062 12.13747673 30 21 C30.99568972 22.00429179 31.99342127 23.0066223 33 24 C32.34 24.99 31.68 25.98 31 27 C30.59007812 26.50628906 30.18015625 26.01257813 29.7578125 25.50390625 C29.21898437 24.86324219 28.68015625 24.22257812 28.125 23.5625 C27.59132813 22.92441406 27.05765625 22.28632813 26.5078125 21.62890625 C25.0777243 19.89194996 25.0777243 19.89194996 23 19 C23 18.34 23 17.68 23 17 C22.45988281 16.74992187 21.91976562 16.49984375 21.36328125 16.2421875 C18.48748039 14.73060953 15.87354599 12.95247673 13.1875 11.125 C8.87482933 8.22173333 4.56255186 5.48866465 0 3 C0 2.01 0 1.02 0 0 Z " fill="#1B403F" transform="translate(742,159)"/>
<path d="M0 0 C0.99 0.33 1.98 0.66 3 1 C3.68335879 28.572651 3.68335879 28.572651 0 36 C-1.485 36.495 -1.485 36.495 -3 37 C-3.33 37.66 -3.66 38.32 -4 39 C-3.5689564 35.83901362 -3.13668407 32.69798506 -2.5234375 29.56640625 C-0.66216699 19.77390097 -0.37314578 9.93746141 0 0 Z " fill="#083837" transform="translate(792,232)"/>
<path d="M0 0 C0.99 0.495 0.99 0.495 2 1 C2.33 17.83 2.66 34.66 3 52 C2.34 52 1.68 52 1 52 C0.67 52.99 0.34 53.98 0 55 C0 36.85 0 18.7 0 0 Z " fill="#123F3D" transform="translate(286,359)"/>
<path d="M0 0 C15.03408581 -0.13538592 29.98802974 0.16710922 45 1 C45 1.66 45 2.32 45 3 C39.78556667 3.02470935 34.57116739 3.04286444 29.35668945 3.05493164 C27.58259487 3.059962 25.80850444 3.06678699 24.03442383 3.07543945 C21.48517839 3.08756174 18.93598774 3.09324126 16.38671875 3.09765625 C15.19594978 3.10539818 15.19594978 3.10539818 13.98112488 3.11329651 C10.72343714 3.11362877 8.11318479 3.03772826 5 2 C3.33378384 1.96125079 1.66605828 1.9549714 0 2 C0 1.34 0 0.68 0 0 Z " fill="#033330" transform="translate(596,198)"/>
<path d="M0 0 C0.66 0 1.32 0 2 0 C2.6496875 1.175625 2.6496875 1.175625 3.3125 2.375 C5.30010875 5.46683583 6.65121208 5.76623603 10 7 C10.33 7.99 10.66 8.98 11 10 C13.75281216 11.36306396 13.75281216 11.36306396 17 12.5 C20.3125 13.71875 20.3125 13.71875 23 15 C23.33 15.99 23.66 16.98 24 18 C21 19 21 19 18.8359375 18.25 C11.56871918 14.55871451 3.3227302 10.20455033 -1 3 C-0.67 2.01 -0.34 1.02 0 0 Z " fill="#0A2A27" transform="translate(568,181)"/>
<path d="M0 0 C0 0.99 0 1.98 0 3 C-1.49609375 4.4296875 -1.49609375 4.4296875 -3.4375 5.875 C-6.65916652 8.46521988 -7.4253997 9.86287785 -8 14 C-9.875 15.0625 -9.875 15.0625 -12 16 C-13.01241685 17.32392972 -14.01439389 18.65599167 -15 20 C-15.66 20 -16.32 20 -17 20 C-17.33 20.66 -17.66 21.32 -18 22 C-18.33149814 18.79361277 -18.19255966 17.3083887 -16.4609375 14.53515625 C-5.0014233 0.95112537 -5.0014233 0.95112537 0 0 Z " fill="#122F2D" transform="translate(311,321)"/>
<path d="M0 0 C-2.08653145 5.05233924 -5.70586266 6.40424893 -10.375 8.8125 C-11.14328125 9.23208984 -11.9115625 9.65167969 -12.703125 10.08398438 C-13.44820312 10.47521484 -14.19328125 10.86644531 -14.9609375 11.26953125 C-15.97873291 11.80477417 -15.97873291 11.80477417 -17.01708984 12.35083008 C-19.39968747 13.13085065 -20.66539145 12.81244899 -23 12 C-13.57142857 4 -13.57142857 4 -9 4 C-8.62875 3.0409375 -8.62875 3.0409375 -8.25 2.0625 C-7 0 -7 0 -5.0625 -0.8125 C-3 -1 -3 -1 0 0 Z " fill="#053833" transform="translate(762,308)"/>
<path d="M0 0 C0.515625 0.2475 1.03125 0.495 1.5625 0.75 C-15.5711991 12.05609298 -15.5711991 12.05609298 -26.4375 11.75 C-26.4375 10.76 -26.4375 9.77 -26.4375 8.75 C-25.29152344 8.43546875 -24.14554687 8.1209375 -22.96484375 7.796875 C-21.43475794 7.36507164 -19.90481766 6.93275239 -18.375 6.5 C-17.62283203 6.29503906 -16.87066406 6.09007812 -16.09570312 5.87890625 C-12.2818882 4.78924484 -9.00919259 3.61329802 -5.62890625 1.515625 C-2.4375 -0.25 -2.4375 -0.25 0 0 Z " fill="#072828" transform="translate(320.4375,302.25)"/>
<path d="M0 0 C0.66 0 1.32 0 2 0 C2 1.98 2 3.96 2 6 C-0.83935751 7.41967876 -3.20353103 7.11268306 -6.37890625 7.09375 C-7.03613174 7.09016479 -7.69335724 7.08657959 -8.37049866 7.08288574 C-17.22846607 7.01359014 -26.08322173 6.75060071 -34.9375 6.5 C-36.69986467 6.451636 -38.46223445 6.40345784 -40.22460938 6.35546875 C-44.48313466 6.23911406 -48.74158359 6.12027076 -53 6 C-53 5.67 -53 5.34 -53 5 C-35.18 5 -17.36 5 1 5 C1 4.34 1 3.68 1 3 C0.34 3 -0.32 3 -1 3 C-0.67 2.01 -0.34 1.02 0 0 Z " fill="#395753" transform="translate(609,409)"/>
<path d="M0 0 C0.33 0.66 0.66 1.32 1 2 C1.99 2.33 2.98 2.66 4 3 C3.4375 4.9375 3.4375 4.9375 2 7 C-4.71661323 8.60282816 -11.59571167 7.887233 -18.4375 7.5625 C-20.25024414 7.48418945 -20.25024414 7.48418945 -22.09960938 7.40429688 C-25.06671084 7.27529246 -28.03341748 7.1403565 -31 7 C-31 6.67 -31 6.34 -31 6 C-23.41 5.67 -15.82 5.34 -8 5 C-8 4.34 -8 3.68 -8 3 C-5.36 2.67 -2.72 2.34 0 2 C0 1.34 0 0.68 0 0 Z " fill="#0C4240" transform="translate(469,260)"/>
<path d="M0 0 C5.39882424 4.59474404 10.71333087 9.27676273 16 14 C15.34 15.32 14.68 16.64 14 18 C13.38511719 17.25943359 13.38511719 17.25943359 12.7578125 16.50390625 C12.21898437 15.86324219 11.68015625 15.22257813 11.125 14.5625 C10.59132813 13.92441406 10.05765625 13.28632813 9.5078125 12.62890625 C8.0777243 10.89194996 8.0777243 10.89194996 6 10 C6 9.34 6 8.68 6 8 C5.401875 7.71125 4.80375 7.4225 4.1875 7.125 C2 6 2 6 -1 4 C-0.67 2.68 -0.34 1.36 0 0 Z " fill="#0D302C" transform="translate(759,168)"/>
<path d="M0 0 C1.32 0 2.64 0 4 0 C3.71767279 2.10544013 3.4238102 4.20933589 3.125 6.3125 C2.96257813 7.48425781 2.80015625 8.65601563 2.6328125 9.86328125 C2 13 2 13 0 16 C-0.66 16 -1.32 16 -2 16 C-2.33 16.66 -2.66 17.32 -3 18 C-2.19500136 11.96251023 -1.11517502 5.98729887 0 0 Z " fill="#0B332E" transform="translate(791,253)"/>
<path d="M0 0 C0.33 0 0.66 0 1 0 C0.67 14.85 0.34 29.7 0 45 C-0.33 45 -0.66 45 -1 45 C-1.02505615 43.90010742 -1.0501123 42.80021484 -1.07592773 41.66699219 C-1.17018206 37.58175235 -1.27035865 33.49667539 -1.37231445 29.41162109 C-1.41559514 27.64440728 -1.45727505 25.8771535 -1.49731445 24.10986328 C-1.55518351 21.5679114 -1.61882981 19.02615941 -1.68359375 16.484375 C-1.70030624 15.69569031 -1.71701874 14.90700562 -1.73423767 14.09442139 C-1.81664478 9.95038577 -1.81664478 9.95038577 -2.59877014 5.89996338 C-3 4 -3 4 -1.625 1.75 C-1.08875 1.1725 -0.5525 0.595 0 0 Z " fill="#001E1B" transform="translate(289,352)"/>
<path d="M0 0 C0 0.66 0 1.32 0 2 C-0.60585938 2.09796875 -1.21171875 2.1959375 -1.8359375 2.296875 C-7.58618129 3.32307235 -12.63634949 4.9052008 -17.96875 7.29296875 C-18.6390625 7.52628906 -19.309375 7.75960938 -20 8 C-20.66 7.67 -21.32 7.34 -22 7 C-21 4 -21 4 -18.8125 2.875 C-15.88131632 1.96307619 -13.03167774 1.46134226 -10 1 C-6.52674819 -0.1577506 -3.63932552 -0.06866652 0 0 Z " fill="#03201F" transform="translate(388,264)"/>
<path d="M0 0 C1.08318169 5.3212615 2.152874 10.63486869 3 16 C0.64046906 13.64046906 0.50858587 12.22104383 0 9 C-0.99 9 -1.98 9 -3 9 C-5.10770759 6.11165997 -6 4.61537605 -6 1 C-3 0 -3 0 0 0 Z " fill="#042B28" transform="translate(734,213)"/>
<path d="M0 0 C2.0625 0.4375 2.0625 0.4375 4 1 C-0.33333333 5.33333333 -4.66666667 9.66666667 -9 14 C-8.47929737 9.86330684 -7.3269206 7.78546392 -4.5 4.75 C-3.8709375 4.06421875 -3.241875 3.3784375 -2.59375 2.671875 C-1.73729192 1.77343369 -0.87770076 0.87770076 0 0 Z " fill="#082A2A" transform="translate(359,274)"/>
<path d="M0 0 C2.52292612 0.96797982 3.74519864 1.44608401 4.8984375 3.953125 C5.93268481 8.93785792 6.21222401 12.20684798 4 17 C1.94862685 13.51783717 1.43181408 10.22724343 0.875 6.25 C0.70742188 5.07953125 0.53984375 3.9090625 0.3671875 2.703125 C0.24601563 1.81109375 0.12484375 0.9190625 0 0 Z " fill="#092B28" transform="translate(788,211)"/>
<path d="M0 0 C1.32 0.33 2.64 0.66 4 1 C4 1.66 4 2.32 4 3 C5.32 3.33 6.64 3.66 8 4 C0.08 4 -7.84 4 -16 4 C-12.36804504 1.57869669 -10.61650652 1.78977215 -6.3125 1.875 C-5.13300781 1.89304687 -3.95351563 1.91109375 -2.73828125 1.9296875 C-1.38283203 1.96449219 -1.38283203 1.96449219 0 2 C0 1.34 0 0.68 0 0 Z " fill="#001B19" transform="translate(344,311)"/>
<path d="M0 0 C1.46184058 0.22860058 2.91955419 0.48370392 4.375 0.75 C5.59316406 0.95882812 5.59316406 0.95882812 6.8359375 1.171875 C9 2 9 2 11 6 C8.03 6 5.06 6 2 6 C1.67 5.34 1.34 4.68 1 4 C-1.01669827 2.86649466 -1.01669827 2.86649466 -3 2 C-2.01 2 -1.02 2 0 2 C0 1.34 0 0.68 0 0 Z " fill="#032B28" transform="translate(721,151)"/>
<path d="M0 0 C1.35015859 4.05047576 0.62084998 6.7920168 0 11 C-4.29 11 -8.58 11 -13 11 C-13 10.67 -13 10.34 -13 10 C-10.03 10 -7.06 10 -4 10 C-3.67 7.36 -3.34 4.72 -3 2 C-2.01 2 -1.02 2 0 2 C0 1.34 0 0.68 0 0 Z " fill="#1A3835" transform="translate(344,302)"/>
<path d="M0 0 C0.66 0.33 1.32 0.66 2 1 C1.67 1.99 1.34 2.98 1 4 C-0.33333333 4.66666667 -1.66666667 5.33333333 -3 6 C-4.01241685 7.32392972 -5.01439389 8.65599167 -6 10 C-6.66 10 -7.32 10 -8 10 C-8.33 10.66 -8.66 11.32 -9 12 C-9.39141851 8.57508802 -9.13357065 7.20989673 -7.25 4.25 C-4.9915797 1.9915797 -4.06668458 1.42299098 -1 1 C-0.67 0.67 -0.34 0.34 0 0 Z " fill="#042926" transform="translate(302,331)"/>
<path d="M0 0 C0.721875 0.391875 1.44375 0.78375 2.1875 1.1875 C-3.29497978 6.97456199 -3.29497978 6.97456199 -6.8125 8.1875 C-7.4725 7.8575 -8.1325 7.5275 -8.8125 7.1875 C-7.8225 6.1975 -6.8325 5.2075 -5.8125 4.1875 C-6.4725 3.5275 -7.1325 2.8675 -7.8125 2.1875 C-3.50480769 -1.0125 -3.50480769 -1.0125 0 0 Z " fill="#163E3E" transform="translate(367.8125,270.8125)"/>
<path d="M0 0 C-0.4682121 4.77576339 -1.24331998 8.04476345 -4 12 C-5.32 11.67 -6.64 11.34 -8 11 C-7.34 10.01 -6.68 9.02 -6 8 C-5.87625 7.175 -5.7525 6.35 -5.625 5.5 C-5 3 -5 3 -3 1.1875 C-1 0 -1 0 0 0 Z " fill="#0F2F2B" transform="translate(338,280)"/>
<path d="M0 0 C3.79403384 1.26467795 4.06684293 2.61697513 6 6 C6.51175781 6.45246094 7.02351562 6.90492188 7.55078125 7.37109375 C9.42845771 9.48158184 9.48557262 10.90090218 9.6875 13.6875 C9.78611328 14.89986328 9.78611328 14.89986328 9.88671875 16.13671875 C9.92410156 16.75160156 9.96148438 17.36648437 10 18 C7.64046906 15.64046906 7.50858587 14.22104383 7 11 C6.34 11 5.68 11 5 11 C3.35 7.37 1.7 3.74 0 0 Z " fill="#052E2A" transform="translate(778,192)"/>
<path d="M0 0 C3.78155989 1.26051996 4.25618367 2.56446606 6.25 5.9375 C6.79140625 6.83339844 7.3328125 7.72929687 7.890625 8.65234375 C8.25671875 9.42707031 8.6228125 10.20179688 9 11 C8.67 11.66 8.34 12.32 8 13 C4.59863711 11.62087597 3.30394435 10.37388141 1.75 7.0625 C1.41484375 6.37285156 1.0796875 5.68320312 0.734375 4.97265625 C0 3 0 3 0 0 Z " fill="#032625" transform="translate(688,338)"/>
<path d="M0 0 C-1.13499394 3.29148243 -1.99283376 3.9959869 -5.125 5.75 C-6.548125 6.36875 -6.548125 6.36875 -8 7 C-8.625 4.625 -8.625 4.625 -9 2 C-5.96271914 -1.03728086 -4.06215635 -1.35405212 0 0 Z " fill="#113838" transform="translate(762,308)"/>
<path d="M0 0 C0 0.66 0 1.32 0 2 C1.32 2 2.64 2 4 2 C4 2.66 4 3.32 4 4 C-1.61 3.67 -7.22 3.34 -13 3 C-13 2.34 -13 1.68 -13 1 C-11.20843648 0.83222817 -9.4167455 0.66581706 -7.625 0.5 C-6.62726562 0.4071875 -5.62953125 0.314375 -4.6015625 0.21875 C-2 0 -2 0 0 0 Z " fill="#012322" transform="translate(713,149)"/>
<path d="M0 0 C1.98 0 3.96 0 6 0 C5.67 0.99 5.34 1.98 5 3 C10.445 2.505 10.445 2.505 16 2 C12.27422909 4.48384727 9.32515775 5.41475787 4.83203125 4.61328125 C2.87503251 4.12489749 0.93558832 3.56732761 -1 3 C-0.67 2.01 -0.34 1.02 0 0 Z " fill="#11413F" transform="translate(591,197)"/>
<path d="M0 0 C4.42679007 1.47559669 4.91432696 3.90057368 7 8 C7 8.66 7 9.32 7 10 C5.68 10 4.36 10 3 10 C0.33563684 6.66954606 -0.3619323 4.2225435 0 0 Z " fill="#02322E" transform="translate(705,366)"/>
<path d="M0 0 C0.66 0 1.32 0 2 0 C1.32829194 3.8063457 0.27253436 7.35206816 -1 11 C-2.32 10.67 -3.64 10.34 -5 10 C-4.35699811 8.51960029 -3.71051501 7.04071218 -3.0625 5.5625 C-2.70285156 4.73878906 -2.34320313 3.91507812 -1.97265625 3.06640625 C-1 1 -1 1 0 0 Z " fill="#022320" transform="translate(347,290)"/>
<path d="M0 0 C1.32 0 2.64 0 4 0 C6.20536179 4.0271824 7.45660208 7.43545749 8 12 C7.34 12 6.68 12 6 12 C4.4921875 9.8828125 4.4921875 9.8828125 2.875 7.125 C2.33617187 6.22007812 1.79734375 5.31515625 1.2421875 4.3828125 C0 2 0 2 0 0 Z " fill="#04302E" transform="translate(770,376)"/>
<path d="M0 0 C0 1.32 0 2.64 0 4 C-3.3 3.67 -6.6 3.34 -10 3 C-10 2.34 -10 1.68 -10 1 C-6.1496895 -1.56687367 -4.41430237 -0.83288724 0 0 Z " fill="#22514E" transform="translate(707,200)"/>
<path d="M0 0 C0.66 0 1.32 0 2 0 C3.04644066 1.63790712 4.0398183 3.31008021 5 5 C5.98244845 6.34631825 6.97676564 7.68441297 8 9 C6.68 9 5.36 9 4 9 C1.1875 6.1875 1.1875 6.1875 -1 3 C-0.67 2.01 -0.34 1.02 0 0 Z " fill="#042625" transform="translate(568,181)"/>
<path d="M0 0 C1.47769949 2.95539898 0.56171816 5.05125224 -0.25390625 8.15625 C-1 10 -1 10 -3.125 11.5 C-3.74375 11.665 -4.3625 11.83 -5 12 C-4.67 9.69 -4.34 7.38 -4 5 C-3.01 4.67 -2.02 4.34 -1 4 C-0.26676204 1.98491642 -0.26676204 1.98491642 0 0 Z " fill="#052D2B" transform="translate(787,272)"/>
<path d="M0 0 C1.32 0.66 2.64 1.32 4 2 C3.01 4.64 2.02 7.28 1 10 C0.67 8.68 0.34 7.36 0 6 C-0.66 6.66 -1.32 7.32 -2 8 C-3.125 4.25 -3.125 4.25 -2 2 C-1.34 2 -0.68 2 0 2 C0 1.34 0 0.68 0 0 Z " fill="#305857" transform="translate(787,268)"/>
<path d="M0 0 C0.66 0 1.32 0 2 0 C2.33 0.66 2.66 1.32 3 2 C3.99 2.66 4.98 3.32 6 4 C6 4.99 6 5.98 6 7 C6.66 7 7.32 7 8 7 C8.33 9.31 8.66 11.62 9 14 C4.4434473 10.28725335 2.42599607 5.20992598 0 0 Z " fill="#234E4D" transform="translate(724,401)"/>
<path d="M0 0 C0.66 0 1.32 0 2 0 C6 6.75 6 6.75 6 9 C4.125 8.6875 4.125 8.6875 2 8 C-0.1519437 4.77208445 -0.20086443 3.71599191 0 0 Z " fill="#05322F" transform="translate(752,343)"/>
<path d="M0 0 C3.68006822 3.38168431 5.9785845 6.42521756 8 11 C5.42262834 9.96905133 4.23715753 9.4891374 3 6.9375 C2.1704178 4.78719721 2.1704178 4.78719721 -0.125 4.25 C-0.74375 4.1675 -1.3625 4.085 -2 4 C-2 3.34 -2 2.68 -2 2 C-1.34 2 -0.68 2 0 2 C0 1.34 0 0.68 0 0 Z " fill="#335A54" transform="translate(778,188)"/>
<path d="M0 0 C1.32 0.33 2.64 0.66 4 1 C4 1.66 4 2.32 4 3 C4.99 3.33 5.98 3.66 7 4 C6.67 5.98 6.34 7.96 6 10 C3.25722422 6.80009492 1.3697164 3.99500618 0 0 Z " fill="#264947" transform="translate(717,389)"/>
<path d="M0 0 C-8.261959 5.74031891 -8.261959 5.74031891 -13 5 C-4.68334771 -1.46850733 -4.68334771 -1.46850733 0 0 Z " fill="#062227" transform="translate(322,303)"/>
<path d="M0 0 C0.66 0 1.32 0 2 0 C2.268125 1.134375 2.53625 2.26875 2.8125 3.4375 C3.204375 4.613125 3.59625 5.78875 4 7 C4.99 7.33 5.98 7.66 7 8 C7 10.31 7 12.62 7 15 C6.34 13.68 5.68 12.36 5 11 C4.34 11 3.68 11 3 11 C2.01 7.37 1.02 3.74 0 0 Z " fill="#1F4D4B" transform="translate(732,222)"/>
<path d="M0 0 C0.66 0.33 1.32 0.66 2 1 C0.6875 4.4375 0.6875 4.4375 -1 8 C-1.99 8.33 -2.98 8.66 -4 9 C-3.6875 5.625 -3.6875 5.625 -3 2 C-2.01 1.34 -1.02 0.68 0 0 Z " fill="#0C2E2C" transform="translate(565,304)"/>
<path d="M0 0 C0.66 0.33 1.32 0.66 2 1 C0.70700306 3.88437779 -0.65941363 5.87219421 -3 8 C-3.99 7.67 -4.98 7.34 -6 7 C-4.02 4.69 -2.04 2.38 0 0 Z " fill="#022221" transform="translate(328,293)"/>
<path d="M0 0 C2.9375 0.8125 2.9375 0.8125 6 2 C6.33 2.99 6.66 3.98 7 5 C3.37673261 6.2077558 2.35853631 5.54311128 -1 4 C-0.67 2.68 -0.34 1.36 0 0 Z " fill="#113231" transform="translate(585,194)"/>
<path d="M0 0 C1.9375 0.375 1.9375 0.375 4 1 C5.4783226 3.95664519 5.06032783 6.74229737 5 10 C2.35534962 6.8745041 1.15585285 3.91211733 0 0 Z " fill="#06302F" transform="translate(757,354)"/>
<path d="M0 0 C0.66 1.32 1.32 2.64 2 4 C0.625 7.75 0.625 7.75 -1 11 C-1.99 10.34 -2.98 9.68 -4 9 C-2.68 6.03 -1.36 3.06 0 0 Z " fill="#375955" transform="translate(292,340)"/>
<path d="M0 0 C0 0.66 0 1.32 0 2 C-2.64 2.99 -5.28 3.98 -8 5 C-8 3.68 -8 2.36 -8 1 C-5.29120665 -0.35439668 -2.99066732 -0.06501451 0 0 Z " fill="#063934" transform="translate(717,278)"/>
<path d="M0 0 C2.475 0.495 2.475 0.495 5 1 C5.144375 1.763125 5.28875 2.52625 5.4375 3.3125 C5.9632594 6.08172908 5.9632594 6.08172908 7 9 C4 8 4 8 2.83203125 6.15234375 C2.49558594 5.42144531 2.15914062 4.69054687 1.8125 3.9375 C1.46832031 3.20402344 1.12414062 2.47054688 0.76953125 1.71484375 C0.51558594 1.14894531 0.26164063 0.58304687 0 0 Z " fill="#032A28" transform="translate(737,322)"/>
<path d="M0 0 C1.32 0.66 2.64 1.32 4 2 C2.35 3.32 0.7 4.64 -1 6 C-1.99 5.34 -2.98 4.68 -4 4 C-2.68 2.68 -1.36 1.36 0 0 Z " fill="#315A57" transform="translate(764,303)"/>
<path d="M0 0 C0.99 0.66 1.98 1.32 3 2 C0.03 3.65 -2.94 5.3 -6 7 C-5 3 -5 3 -2.4375 1.25 C-1.2309375 0.63125 -1.2309375 0.63125 0 0 Z " fill="#0D2B29" transform="translate(579,290)"/>
<path d="M0 0 C2.50037734 2.17424117 3.43628586 3.73045798 4 7 C2.35 6.67 0.7 6.34 -1 6 C-0.67 4.02 -0.34 2.04 0 0 Z " fill="#325C58" transform="translate(784,395)"/>
<path d="M0 0 C0.99 1.32 1.98 2.64 3 4 C1.68 6.64 0.36 9.28 -1 12 C-2.09898702 8.70303895 -1.87124444 7.59505097 -1.0625 4.3125 C-0.86785156 3.50425781 -0.67320312 2.69601562 -0.47265625 1.86328125 C-0.31667969 1.24839844 -0.16070312 0.63351562 0 0 Z " fill="#164341" transform="translate(349,286)"/>
<path d="M0 0 C2.75 -0.3125 2.75 -0.3125 6 0 C8.375 2.5 8.375 2.5 10 5 C9.67 5.66 9.34 6.32 9 7 C7.4972763 6.02501855 5.99788037 5.04490611 4.5 4.0625 C3.6646875 3.51722656 2.829375 2.97195312 1.96875 2.41015625 C1.3190625 1.94480469 0.669375 1.47945312 0 1 C0 0.67 0 0.34 0 0 Z " fill="#366866" transform="translate(715,206)"/>
<path d="M0 0 C1.45823212 -0.0270043 2.91660675 -0.04639787 4.375 -0.0625 C5.18710937 -0.07410156 5.99921875 -0.08570313 6.8359375 -0.09765625 C9 0 9 0 11 1 C11 1.66 11 2.32 11 3 C9.35333797 2.8864371 7.70763918 2.75882619 6.0625 2.625 C5.14597656 2.55539063 4.22945312 2.48578125 3.28515625 2.4140625 C2.15400391 2.20910156 2.15400391 2.20910156 1 2 C0.67 1.34 0.34 0.68 0 0 Z " fill="#264743" transform="translate(708,203)"/>
<path d="M0 0 C2.74277578 3.19990508 4.6302836 6.00499382 6 10 C4.68 9.67 3.36 9.34 2 9 C1.34 6.03 0.68 3.06 0 0 Z " fill="#3C6664" transform="translate(767,367)"/>
<path d="M0 0 C0.99 0.33 1.98 0.66 3 1 C3.73046875 2.84765625 3.73046875 2.84765625 4.1875 5.0625 C4.34605469 5.79597656 4.50460937 6.52945312 4.66796875 7.28515625 C4.83232422 8.13400391 4.83232422 8.13400391 5 9 C4.34 9 3.68 9 3 9 C0.56839395 5.63316085 0 4.26649636 0 0 Z " fill="#052C28" transform="translate(764,365)"/>
<path d="M0 0 C3 2 3 2 3.6875 5.125 C3.8421875 6.548125 3.8421875 6.548125 4 8 C2.68 8.33 1.36 8.66 0 9 C0 6.03 0 3.06 0 0 Z " fill="#06322D" transform="translate(747,337)"/>
<path d="M0 0 C0 0.66 0 1.32 0 2 C-2.25 4.1875 -2.25 4.1875 -5 6 C-7.3125 5.75 -7.3125 5.75 -9 5 C-2.87096774 0 -2.87096774 0 0 0 Z " fill="#012A29" transform="translate(748,315)"/>
<path d="M0 0 C0.99 0.33 1.98 0.66 3 1 C2.01 2.98 1.02 4.96 0 7 C-0.33 6.34 -0.66 5.68 -1 5 C-1.66 4.67 -2.32 4.34 -3 4 C-2.01 2.68 -1.02 1.36 0 0 Z " fill="#113330" transform="translate(779,287)"/>
<path d="M0 0 C0.99 1.485 0.99 1.485 2 3 C4.88595946 3.58481121 4.88595946 3.58481121 8.125 3.6875 C9.22070312 3.75324219 10.31640625 3.81898438 11.4453125 3.88671875 C12.28835938 3.92410156 13.13140625 3.96148437 14 4 C14 4.33 14 4.66 14 5 C11.85473901 5.19393875 9.70876323 5.37998676 7.5625 5.5625 C5.77005859 5.71912109 5.77005859 5.71912109 3.94140625 5.87890625 C2.97074219 5.91886719 2.00007813 5.95882813 1 6 C0 5 0 5 -0.0625 2.4375 C-0.041875 1.633125 -0.02125 0.82875 0 0 Z " fill="#020C09" transform="translate(471,409)"/>
<path d="M0 0 C2.01136276 2.55991624 3.62845496 5.04590299 5 8 C3.68 8.33 2.36 8.66 1 9 C-0.4783226 6.04335481 -0.06032783 3.25770263 0 0 Z " fill="#304F4F" transform="translate(762,358)"/>
<path d="M0 0 C2.61500768 2.36595933 4.38999603 4.86049226 6 8 C5.67 8.66 5.34 9.32 5 10 C4.01 9.67 3.02 9.34 2 9 C1.855625 8.2575 1.71125 7.515 1.5625 6.75 C1.09812508 4.47972261 0.58136431 2.24240521 0 0 Z " fill="#255451" transform="translate(741,324)"/>
<path d="M0 0 C-2.40436026 3.60654039 -3.94679607 3.85452932 -8 5 C-7.625 3.0625 -7.625 3.0625 -7 1 C-4.53721199 -0.231394 -2.7204945 -0.07159196 0 0 Z " fill="#011F20" transform="translate(321,317)"/>
<path d="M0 0 C0.99 0 1.98 0 3 0 C3.33 0.99 3.66 1.98 4 3 C3.01 4.485 3.01 4.485 2 6 C0.68 5.34 -0.64 4.68 -2 4 C-1.34 2.68 -0.68 1.36 0 0 Z " fill="#214D49" transform="translate(781,282)"/>
<path d="M0 0 C0.66 0.66 1.32 1.32 2 2 C1.625 5.125 1.625 5.125 1 8 C0.34 8 -0.32 8 -1 8 C-1 7.01 -1 6.02 -1 5 C-1.99 5.495 -1.99 5.495 -3 6 C-2 4 -1 2 0 0 Z " fill="#295352" transform="translate(566,300)"/>
<path d="M0 0 C1.9375 0.3125 1.9375 0.3125 4 1 C4.33 1.99 4.66 2.98 5 4 C2.03 4 -0.94 4 -4 4 C-2.68 3.34 -1.36 2.68 0 2 C0 1.34 0 0.68 0 0 Z " fill="#093833" transform="translate(727,153)"/>
<path d="M0 0 C2.97 0.495 2.97 0.495 6 1 C6 2.65 6 4.3 6 6 C4.125 5.8125 4.125 5.8125 2 5 C0.75 2.4375 0.75 2.4375 0 0 Z " fill="#073733" transform="translate(728,405)"/>
<path d="M0 0 C3 1 3 1 4.1875 3.0625 C4.455625 3.701875 4.72375 4.34125 5 5 C4.34 5 3.68 5 3 5 C2.67 5.66 2.34 6.32 2 7 C1.01 5.02 0.02 3.04 -1 1 C-0.67 0.67 -0.34 0.34 0 0 Z " fill="#053E3A" transform="translate(683,329)"/>
<path d="M0 0 C0.8971875 0.5259375 0.8971875 0.5259375 1.8125 1.0625 C0.1625 1.3925 -1.4875 1.7225 -3.1875 2.0625 C-3.1875 2.7225 -3.1875 3.3825 -3.1875 4.0625 C-4.5075 3.4025 -5.8275 2.7425 -7.1875 2.0625 C-4.72093412 -0.40406588 -3.34389711 -1.43309876 0 0 Z " fill="#143432" transform="translate(325.1875,314.9375)"/>
<path d="M0 0 C1.9375 0.8125 1.9375 0.8125 4 2 C4.33 2.99 4.66 3.98 5 5 C3.68 5.33 2.36 5.66 1 6 C1 5.34 1 4.68 1 4 C0.34 4 -0.32 4 -1 4 C-0.67 2.68 -0.34 1.36 0 0 Z " fill="#24504F" transform="translate(560,310)"/>
<path d="M0 0 C0.33 1.32 0.66 2.64 1 4 C-2.01031744 4.93423645 -2.86650268 5.04449911 -6 4 C-4.60804085 1.2160817 -2.84424221 1.02101003 0 0 Z " fill="#06403E" transform="translate(347,299)"/>
<path d="M0 0 C1.98 0.99 1.98 0.99 4 2 C3.34 4.64 2.68 7.28 2 10 C-0.09350689 6.5980513 -0.17942163 3.94727588 0 0 Z " fill="#032220" transform="translate(790,218)"/>
<path d="M0 0 C3.23739279 1.6186964 4.42244771 4.84489543 6 8 C3.50638429 6.79618552 1.31856917 5.54571278 -1 4 C-0.67 2.68 -0.34 1.36 0 0 Z " fill="#02231E" transform="translate(759,168)"/>
<path d="M0 0 C1.98 0.66 3.96 1.32 6 2 C5.01 2.33 4.02 2.66 3 3 C3.33 3.99 3.66 4.98 4 6 C2.68 5.67 1.36 5.34 0 5 C0.66 5 1.32 5 2 5 C2 4.34 2 3.68 2 3 C1.34 3 0.68 3 0 3 C0 2.01 0 1.02 0 0 Z " fill="#164140" transform="translate(787,406)"/>
<path d="M0 0 C2.72426311 2.35277269 3.8141763 4.62496331 5 8 C3.68 8 2.36 8 1 8 C0.67 5.36 0.34 2.72 0 0 Z " fill="#214D4A" transform="translate(776,382)"/>
<path d="M0 0 C1.32 1.32 2.64 2.64 4 4 C3.67 4.66 3.34 5.32 3 6 C1.0625 5.1875 1.0625 5.1875 -1 4 C-1.33 3.01 -1.66 2.02 -2 1 C-1.34 0.67 -0.68 0.34 0 0 Z " fill="#052421" transform="translate(712,377)"/>
<path d="M0 0 C0.66 0 1.32 0 2 0 C2 0.99 2 1.98 2 3 C2.66 3.33 3.32 3.66 4 4 C3.67 4.99 3.34 5.98 3 7 C2.34 7 1.68 7 1 7 C-0.0625 4.625 -0.0625 4.625 -1 2 C-0.67 1.34 -0.34 0.68 0 0 Z " fill="#294544" transform="translate(686,334)"/>
<path d="M0 0 C0.99 0 1.98 0 3 0 C2.34 2.64 1.68 5.28 1 8 C0.67 8 0.34 8 0 8 C-0.38063221 5.6739143 -0.71269945 3.33944736 -1 1 C-0.67 0.67 -0.34 0.34 0 0 Z " fill="#02251C" transform="translate(558,314)"/>
<path d="M0 0 C0.33 0 0.66 0 1 0 C0.67 2.31 0.34 4.62 0 7 C0.66 7.33 1.32 7.66 2 8 C1.01 8.33 0.02 8.66 -1 9 C-1.33 9.66 -1.66 10.32 -2 11 C-1 3.57142857 -1 3.57142857 0 0 Z " fill="#012422" transform="translate(790,260)"/>
<path d="M0 0 C2.64 0.66 5.28 1.32 8 2 C8 2.66 8 3.32 8 4 C6.35 4.33 4.7 4.66 3 5 C3.33 4.01 3.66 3.02 4 2 C2.68 2 1.36 2 0 2 C0 1.34 0 0.68 0 0 Z " fill="#2A5A59" transform="translate(713,149)"/>
</svg>
