<?xml version="1.0" encoding="UTF-8"?>
<svg version="1.1" xmlns="http://www.w3.org/2000/svg" width="1024" height="541">
<path d="M0 0 C1.7745179 -0.00284752 1.7745179 -0.00284752 3.58488464 -0.00575256 C6.82116754 -0.0088173 10.05728119 -0.00295931 13.29354501 0.00720048 C16.69953501 0.0160296 20.10552127 0.01422244 23.51152039 0.01383972 C29.24207857 0.01477572 34.97258377 0.02344255 40.703125 0.03710938 C47.28534106 0.05275159 53.86749881 0.05811022 60.44973212 0.05737382 C67.50093916 0.056692 74.55212431 0.06367723 81.60332465 0.07282043 C83.61138119 0.07492994 85.61943915 0.07550245 87.62749672 0.07605934 C126.69270607 0.09873503 126.69270607 0.09873503 140.26831055 3.36791992 C141.19168213 3.58601318 142.11505371 3.80410645 143.06640625 4.02880859 C156.23500679 7.30983949 167.71110311 12.48941583 178.20581055 21.24291992 C179.15327148 22.02795898 180.10073242 22.81299805 181.0769043 23.62182617 C187.18210407 28.91520834 191.99055097 34.35429835 196.20581055 41.24291992 C196.6544043 41.97124023 197.10299805 42.69956055 197.56518555 43.44995117 C198.86654862 45.67913792 200.05449524 47.93271486 201.20581055 50.24291992 C201.63893555 51.11174805 202.07206055 51.98057617 202.51831055 52.87573242 C211.67106575 72.87014409 212.29964962 98.84285408 204.72924805 119.47338867 C195.9651883 141.49160923 179.82062419 153.40639445 160.20581055 165.24291992 C162.01735312 171.36980622 164.31071425 176.67613574 167.64331055 182.11791992 C168.07724121 182.84205078 168.51117187 183.56618164 168.95825195 184.31225586 C172.72832669 190.56317084 176.6632345 196.70909146 180.59326172 202.86010742 C184.94238564 209.71521143 188.98404032 216.72512827 192.96459961 223.79931641 C195.79015347 228.81171359 198.72544397 233.7125268 201.83081055 238.55541992 C204.69446491 243.11825509 206.37157411 246.92466265 207.20581055 252.24291992 C202.13214565 254.28218567 197.81066649 254.52219071 192.44018555 254.47338867 C191.60674622 254.47293045 190.77330688 254.47247223 189.91461182 254.47200012 C188.15635754 254.46898962 186.39810564 254.46113949 184.63989258 254.44873047 C181.97817288 254.43057248 179.31680428 254.42822047 176.6550293 254.4284668 C171.83706042 254.42037764 167.02249265 254.35133626 162.20581055 254.24291992 C161.12106445 254.22310059 160.03631836 254.20328125 158.91870117 254.18286133 C154.89169603 253.97016739 152.79582444 253.65944962 149.45581055 251.30151367 C146.3894431 247.13317043 143.77463748 242.79400378 141.20581055 238.30541992 C140.05240372 236.32090599 138.89875092 234.336535 137.74487305 232.35229492 C137.15867187 231.33844727 136.5724707 230.32459961 135.96850586 229.2800293 C133.20531975 224.51908259 130.39042161 219.7890587 127.58081055 215.05541992 C122.96670645 207.26078051 118.40125734 199.4394224 113.89477539 191.58203125 C111.80724304 187.95389514 109.69224121 184.3434904 107.51831055 180.76635742 C107.12256836 180.11328613 106.72682617 179.46021484 106.3190918 178.78735352 C105.27169708 177.08250373 105.27169708 177.08250373 103.20581055 176.24291992 C101.15359862 176.14621263 99.09818993 176.11495388 97.04370117 176.11352539 C95.74895874 176.11037323 94.45421631 176.10722107 93.12023926 176.10397339 C91.70084601 176.10576322 90.28145307 176.10781419 88.86206055 176.11010742 C87.41239404 176.10943408 85.96272764 176.10846379 84.51306152 176.10720825 C81.47329637 176.10573273 78.43356057 176.10788117 75.39379883 176.11254883 C71.49293938 176.11824604 67.59214873 176.11496626 63.69129181 176.10897636 C60.69736206 176.10536683 57.70344867 176.10651115 54.70951843 176.10910416 C53.27097058 176.10977234 51.83242125 176.10894878 50.39387512 176.1066246 C48.38522367 176.10409172 46.37656702 176.10863517 44.36791992 176.11352539 C43.22367554 176.11432098 42.07943115 176.11511658 40.9005127 176.11593628 C38.2356939 176.0593882 38.2356939 176.0593882 36.20581055 177.24291992 C36.19994431 178.16555634 36.19407806 179.08819275 36.18803406 180.03878784 C36.13020345 188.720863 36.0581827 197.40267825 35.97009563 206.08450127 C35.92530965 210.54825929 35.88607203 215.01192431 35.859375 219.47583008 C35.83342362 223.7813111 35.79308018 228.08643576 35.74262428 232.39169693 C35.72590002 234.03674014 35.71442048 235.68184507 35.70819664 237.32696152 C35.69861542 239.62599063 35.67063066 241.92409653 35.63818359 244.22290039 C35.62708054 245.53306122 35.61597748 246.84322205 35.60453796 248.19308472 C35.47295792 249.19953033 35.34137787 250.20597595 35.20581055 251.24291992 C31.99646481 253.38248375 31.17734908 253.49209387 27.49072266 253.48583984 C26.53640854 253.48891647 25.58209442 253.4919931 24.59886169 253.49516296 C23.57067825 253.48797745 22.54249481 253.48079193 21.4831543 253.47338867 C20.42673233 253.47293045 19.37031036 253.47247223 18.28187561 253.47200012 C16.04841997 253.46897844 13.81496643 253.46109467 11.58154297 253.44873047 C8.15348895 253.43047413 4.72570497 253.42822079 1.29760742 253.4284668 C-0.86971263 253.4235516 -3.03703085 253.41772328 -5.2043457 253.41088867 C-6.74965721 253.40921944 -6.74965721 253.40921944 -8.32618713 253.40751648 C-9.27734909 253.40113663 -10.22851105 253.39475677 -11.20849609 253.38818359 C-12.0477211 253.3843718 -12.88694611 253.38056 -13.75160217 253.37663269 C-15.79418945 253.24291992 -15.79418945 253.24291992 -17.79418945 252.24291992 C-21.95641464 163.60744894 -21.95641464 163.60744894 -6.75512695 144.70776367 C3.63140245 133.71565923 16.34647765 128.3318035 31.39770508 127.64624023 C32.17684328 127.60716679 32.95598148 127.56809334 33.75872993 127.52783585 C41.99871907 127.14911885 50.23654558 127.10669315 58.48382187 127.10482025 C63.12819859 127.10039717 67.7724488 127.06932811 72.41674805 127.04370117 C78.26900633 127.01335694 84.12104401 126.99061237 89.97338867 126.99243164 C94.7600962 126.99322268 99.54616592 126.96971863 104.33270645 126.93054962 C106.13696544 126.92017643 107.94129876 126.91850064 109.74557114 126.92620087 C122.97086991 126.97710132 134.44912986 125.8123148 144.5222168 116.19995117 C152.50845736 106.91664138 154.16915671 96.26188816 153.45727539 84.40405273 C152.54643065 76.57609387 148.78678467 69.52055112 144.20581055 63.24291992 C144.20581055 62.58291992 144.20581055 61.92291992 144.20581055 61.24291992 C143.48522461 60.96577148 142.76463867 60.68862305 142.0222168 60.40307617 C138.43763606 58.92648744 135.0466115 57.14946834 131.6081543 55.36401367 C128.04187314 53.69974913 124.90501505 53.12046192 120.98464966 53.07365417 C120.14955368 53.06123184 119.3144577 53.04880951 118.45405579 53.03601074 C117.54600693 53.02718872 116.63795807 53.0183667 115.70239258 53.00927734 C114.73918594 52.99604935 113.77597931 52.98282135 112.78358459 52.9691925 C110.69108595 52.94064166 108.59856047 52.91400833 106.50601578 52.88905907 C103.18323842 52.84801334 99.86068003 52.79880205 96.53805542 52.74690247 C87.09022258 52.59948411 77.64242037 52.45618415 68.1940918 52.34423828 C62.41197533 52.27513162 56.63038999 52.1873816 50.84872055 52.08785439 C48.65543035 52.05355114 46.46202254 52.02601652 44.2685585 52.00566673 C27.07772419 51.84198761 10.32021807 50.99828192 -2.91918945 38.61791992 C-12.9433692 28.03350658 -18.07748979 16.69123735 -17.79418945 2.24291992 C-11.9386621 -0.30545593 -6.26238178 -0.03166947 0 0 Z " fill="#FEFEFE" transform="translate(543.794189453125,139.757080078125)"/>
<path d="M0 0 C1.04607422 -0.00700928 1.04607422 -0.00700928 2.11328125 -0.01416016 C6.83410735 0.00073565 11.35429357 0.32015174 16 1.125 C23.77972579 16.68445159 18.06905612 49.63992989 18.05263186 66.6173439 C18.0507449 68.72816217 18.04961572 70.8389797 18.04867172 72.94979858 C18.03320699 104.4811908 17.90792965 136.01217311 17.71246052 167.54293823 C17.65633757 176.61229297 17.60725986 185.68163018 17.56685698 194.75106907 C17.53721732 201.28151154 17.50007928 207.81188478 17.45720994 214.34225368 C17.43212734 218.1922465 17.41027867 222.04219056 17.39665604 225.89224243 C17.3815614 230.10926796 17.35098128 234.32603869 17.31884766 238.54296875 C17.31560738 240.42446121 17.31560738 240.42446121 17.31230164 242.34396362 C17.30113815 243.47979889 17.28997467 244.61563416 17.2784729 245.78588867 C17.27294214 246.77497726 17.26741138 247.76406586 17.26171303 248.78312683 C17 251.125 17 251.125 15 253.125 C13.0914917 253.41693115 13.0914917 253.41693115 10.73730469 253.47558594 C9.85588806 253.50191101 8.97447144 253.52823608 8.06634521 253.55535889 C7.11117004 253.5731842 6.15599487 253.59100952 5.171875 253.609375 C4.19011292 253.6334845 3.20835083 253.65759399 2.19683838 253.68243408 C0.11554478 253.73079784 -1.96586968 253.77417479 -4.04736328 253.81298828 C-7.22353066 253.87448748 -10.39861336 253.95762158 -13.57421875 254.04296875 C-15.59632583 254.08725081 -17.61846126 254.13026057 -19.640625 254.171875 C-20.58770325 254.19779724 -21.53478149 254.22371948 -22.51055908 254.25042725 C-23.85159698 254.27100189 -23.85159698 254.27100189 -25.21972656 254.29199219 C-25.99979065 254.30816589 -26.77985474 254.3243396 -27.58355713 254.34100342 C-30.59179184 254.07210032 -33.1735336 253.16044071 -36 252.125 C-36.86682745 240.63970523 -37.13592533 229.23398138 -37.09765625 217.71875 C-37.0961802 216.20605507 -37.09516359 214.69335961 -37.09460449 213.18066406 C-37.08942839 207.66210143 -37.07546781 202.14354983 -37.0625 196.625 C-37.041875 184.25 -37.02125 171.875 -37 159.125 C-76.27 158.795 -115.54 158.465 -156 158.125 C-156.21013011 188.26711468 -156.21013011 188.26711468 -156.38793945 218.40942383 C-156.43786621 224.23571777 -156.43786621 224.23571777 -156.4650116 226.96220398 C-156.48117418 228.86870034 -156.49145378 230.77525202 -156.49711609 232.68180847 C-156.50682479 235.56787756 -156.53512712 238.45322109 -156.56762695 241.33911133 C-156.56620099 242.19020635 -156.56477503 243.04130136 -156.56330585 243.91818714 C-156.65657527 249.6995061 -156.65657527 249.6995061 -158.38652897 251.84287167 C-160.59299503 253.59621747 -162.02474809 253.4932953 -164.82275391 253.48144531 C-165.80031647 253.48444641 -166.77787903 253.48744751 -167.7850647 253.49053955 C-168.83825897 253.47819275 -169.89145325 253.46584595 -170.9765625 253.453125 C-172.05755219 253.45125183 -173.13854187 253.44937866 -174.25228882 253.44744873 C-176.53703903 253.44072481 -178.82177766 253.42680366 -181.10644531 253.40625 C-184.61794639 253.37506265 -188.1289991 253.36527689 -191.640625 253.359375 C-193.85677635 253.35020668 -196.0729231 253.33983145 -198.2890625 253.328125 C-199.34630524 253.32387512 -200.40354797 253.31962524 -201.49282837 253.31524658 C-202.94971573 253.30083527 -202.94971573 253.30083527 -204.43603516 253.28613281 C-205.29524567 253.27930481 -206.15445618 253.27247681 -207.03970337 253.26544189 C-209 253.125 -209 253.125 -210 252.125 C-211.26448123 244.92735582 -211.20020534 237.78320069 -211.1875 230.5 C-211.18656342 229.81336273 -211.18562683 229.12672546 -211.18466187 228.41928101 C-211.06532014 187.99888474 -211.06532014 187.99888474 -198 173.125 C-197.44957031 172.45855469 -196.89914062 171.79210937 -196.33203125 171.10546875 C-188.96174521 162.88657835 -176.99589417 156.63042947 -165.91015625 155.9296875 C-164.97042969 155.95289063 -164.03070313 155.97609375 -163.0625 156 C-162.10472656 156.01804687 -161.14695312 156.03609375 -160.16015625 156.0546875 C-159.44730469 156.07789063 -158.73445313 156.10109375 -158 156.125 C-157.96132813 155.12533203 -157.96132813 155.12533203 -157.921875 154.10546875 C-157.10918489 140.89925449 -152.38337207 130.412127 -142.90234375 121.0546875 C-129.51713271 109.831516 -113.69679755 108.82475403 -97.05859375 108.7109375 C-95.32266849 108.69220228 -93.58675212 108.67262716 -91.85084534 108.6522522 C-87.30867781 108.60117341 -82.76648084 108.56141873 -78.22418213 108.52410889 C-73.57841859 108.48391622 -68.93277497 108.43289391 -64.28710938 108.3828125 C-55.19149079 108.28634083 -46.09580411 108.20184506 -37 108.125 C-37.00222061 107.03078232 -37.00444122 105.93656464 -37.00672913 104.80918884 C-37.02710254 94.43898105 -37.04204004 84.06877739 -37.05181217 73.69855404 C-37.05700518 68.36860754 -37.06403687 63.03867735 -37.07543945 57.70874023 C-37.08639676 52.55400497 -37.09230373 47.39928528 -37.09487724 42.24453926 C-37.09670855 40.28921832 -37.10028399 38.33389812 -37.10573006 36.37858391 C-37.17370032 10.93651185 -37.17370032 10.93651185 -36 3.125 C-33.51063719 0.63563719 -32.63115721 0.83383522 -29.1875 0.7109375 C-27.71023438 0.65268799 -27.71023438 0.65268799 -26.203125 0.59326172 C-24.61757813 0.54709717 -24.61757813 0.54709717 -23 0.5 C-21.92234375 0.46277832 -20.8446875 0.42555664 -19.734375 0.38720703 C-13.15751618 0.17583583 -6.58025969 0.02973009 0 0 Z " fill="#FEFEFE" transform="translate(482,139.875)"/>
<path d="M0 0 C16.5 0 33 0 50 0 C52.25004211 4.50008421 52.25004211 4.50008421 52.24723816 8.06257629 C52.25143265 8.8625705 52.25562714 9.6625647 52.25994873 10.48680115 C52.25432922 11.35587601 52.24870972 12.22495087 52.24291992 13.12036133 C52.24481827 14.04294739 52.24671661 14.96553345 52.24867249 15.91607666 C52.25238125 18.97148094 52.2416655 22.02664799 52.23046875 25.08203125 C52.22927574 27.21514356 52.22882404 29.34825639 52.2290802 31.48136902 C52.22751459 35.96116408 52.21922573 40.44087933 52.20581055 44.9206543 C52.18893382 50.62498818 52.1849931 56.32923344 52.18575573 62.03358936 C52.18548169 66.44604824 52.17996147 70.85848824 52.17275429 75.27094078 C52.16959939 77.3713943 52.16760776 79.47184993 52.16686058 81.57230568 C52.13233155 127.96126032 52.13233155 127.96126032 36.1875 144.25 C27.61012385 151.38555306 15.09960292 155.51473596 4.06640625 156.22265625 C2 156 2 156 -1 154 C-1.50661182 151.44893646 -1.50661182 151.44893646 -1.67842102 148.24255371 C-1.74271616 147.06682297 -1.8070113 145.89109222 -1.87325478 144.67973328 C-2.07494224 138.82423803 -2.14744517 132.97792858 -2.14526367 127.11914062 C-2.14826533 125.78545032 -2.15167013 124.45176086 -2.15544128 123.11807251 C-2.16417248 119.54010358 -2.16661443 115.96215863 -2.16725707 112.38418007 C-2.16797257 110.14429608 -2.170116 107.90441802 -2.17275429 105.66453552 C-2.18196395 97.83917865 -2.18609375 90.01383868 -2.18530273 82.18847656 C-2.18469962 74.90774087 -2.19530828 67.6270787 -2.2110464 60.34636164 C-2.22411877 54.07430757 -2.22948692 47.80227761 -2.22884732 41.53021002 C-2.22859272 37.79276265 -2.23142476 34.0553811 -2.24202538 30.31794739 C-2.2535005 26.16048101 -2.24896151 22.00318094 -2.24291992 17.84570312 C-2.24853943 16.61240265 -2.25415894 15.37910217 -2.25994873 14.10842896 C-2.25575424 12.97601776 -2.25155975 11.84360657 -2.24723816 10.67687988 C-2.24778293 9.69546272 -2.24832769 8.71404556 -2.24888897 7.70288849 C-2 5 -2 5 0 0 Z " fill="#FEFEFE" transform="translate(273,141)"/>
</svg>
